<svg xmlns="http://www.w3.org/2000/svg" viewBox="0 0 1400 800" width="1400" height="800"
     preserveAspectRatio="xMidYMid slice" aria-hidden="true">
  <defs>
    <linearGradient id="gfade" x1="0" y1="0" x2="0" y2="1">
      <stop offset="0%" stop-color="#05070d" stop-opacity="1"/>
      <stop offset="35%" stop-color="#05070d" stop-opacity="0.35"/>
      <stop offset="100%" stop-color="#05070d" stop-opacity="0"/>
    </linearGradient>
    <radialGradient id="glow" cx="0.5" cy="0.32" r="0.55">
      <stop offset="0%" stop-color="#c9a227" stop-opacity="0.22"/>
      <stop offset="100%" stop-color="#c9a227" stop-opacity="0"/>
    </radialGradient>
  </defs>
  <rect width="1400" height="800" fill="#0b1020"/>
  <rect width="1400" height="800" fill="url(#glow)"/>
  <g stroke="#c9a227" stroke-opacity="0.16" stroke-width="1"><line x1="700" y1="250" x2="-2160" y2="800"/><line x1="700" y1="250" x2="-2030" y2="800"/><line x1="700" y1="250" x2="-1900" y2="800"/><line x1="700" y1="250" x2="-1770" y2="800"/><line x1="700" y1="250" x2="-1640" y2="800"/><line x1="700" y1="250" x2="-1510" y2="800"/><line x1="700" y1="250" x2="-1380" y2="800"/><line x1="700" y1="250" x2="-1250" y2="800"/><line x1="700" y1="250" x2="-1120" y2="800"/><line x1="700" y1="250" x2="-990" y2="800"/><line x1="700" y1="250" x2="-860" y2="800"/><line x1="700" y1="250" x2="-730" y2="800"/><line x1="700" y1="250" x2="-600" y2="800"/><line x1="700" y1="250" x2="-470" y2="800"/><line x1="700" y1="250" x2="-340" y2="800"/><line x1="700" y1="250" x2="-210" y2="800"/><line x1="700" y1="250" x2="-80" y2="800"/><line x1="700" y1="250" x2="50" y2="800"/><line x1="700" y1="250" x2="180" y2="800"/><line x1="700" y1="250" x2="310" y2="800"/><line x1="700" y1="250" x2="440" y2="800"/><line x1="700" y1="250" x2="570" y2="800"/><line x1="700" y1="250" x2="700" y2="800"/><line x1="700" y1="250" x2="830" y2="800"/><line x1="700" y1="250" x2="960" y2="800"/><line x1="700" y1="250" x2="1090" y2="800"/><line x1="700" y1="250" x2="1220" y2="800"/><line x1="700" y1="250" x2="1350" y2="800"/><line x1="700" y1="250" x2="1480" y2="800"/><line x1="700" y1="250" x2="1610" y2="800"/><line x1="700" y1="250" x2="1740" y2="800"/><line x1="700" y1="250" x2="1870" y2="800"/><line x1="700" y1="250" x2="2000" y2="800"/><line x1="700" y1="250" x2="2130" y2="800"/><line x1="700" y1="250" x2="2260" y2="800"/><line x1="700" y1="250" x2="2390" y2="800"/><line x1="700" y1="250" x2="2520" y2="800"/><line x1="700" y1="250" x2="2650" y2="800"/><line x1="700" y1="250" x2="2780" y2="800"/><line x1="700" y1="250" x2="2910" y2="800"/><line x1="700" y1="250" x2="3040" y2="800"/><line x1="700" y1="250" x2="3170" y2="800"/><line x1="700" y1="250" x2="3300" y2="800"/><line x1="700" y1="250" x2="3430" y2="800"/><line x1="700" y1="250" x2="3560" y2="800"/></g>
  <g stroke="#2dd4bf" stroke-width="1" stroke-opacity="0.5"><line x1="0" y1="250.4" x2="1400" y2="250.4" opacity="0.05"/><line x1="0" y1="252.0" x2="1400" y2="252.0" opacity="0.05"/><line x1="0" y1="255.1" x2="1400" y2="255.1" opacity="0.05"/><line x1="0" y1="259.8" x2="1400" y2="259.8" opacity="0.06"/><line x1="0" y1="266.4" x2="1400" y2="266.4" opacity="0.06"/><line x1="0" y1="275.0" x2="1400" y2="275.0" opacity="0.07"/><line x1="0" y1="285.7" x2="1400" y2="285.7" opacity="0.07"/><line x1="0" y1="298.5" x2="1400" y2="298.5" opacity="0.08"/><line x1="0" y1="313.6" x2="1400" y2="313.6" opacity="0.09"/><line x1="0" y1="331.0" x2="1400" y2="331.0" opacity="0.10"/><line x1="0" y1="350.8" x2="1400" y2="350.8" opacity="0.11"/><line x1="0" y1="373.2" x2="1400" y2="373.2" opacity="0.13"/><line x1="0" y1="398.1" x2="1400" y2="398.1" opacity="0.14"/><line x1="0" y1="425.6" x2="1400" y2="425.6" opacity="0.16"/><line x1="0" y1="455.8" x2="1400" y2="455.8" opacity="0.18"/><line x1="0" y1="488.7" x2="1400" y2="488.7" opacity="0.20"/><line x1="0" y1="524.4" x2="1400" y2="524.4" opacity="0.22"/><line x1="0" y1="563.0" x2="1400" y2="563.0" opacity="0.25"/><line x1="0" y1="604.4" x2="1400" y2="604.4" opacity="0.28"/><line x1="0" y1="648.8" x2="1400" y2="648.8" opacity="0.30"/><line x1="0" y1="696.2" x2="1400" y2="696.2" opacity="0.33"/><line x1="0" y1="746.5" x2="1400" y2="746.5" opacity="0.37"/><line x1="0" y1="800.0" x2="1400" y2="800.0" opacity="0.40"/></g>
  <rect width="1400" height="440" fill="url(#gfade)"/>
</svg>
